<svg width="15" height="15" viewBox="0 0 15 15" fill="none" xmlns="http://www.w3.org/2000/svg">
<path d="M8.22472 0.505492C8.05618 0.18714 7.78464 0.0186005 7.41011 -0.000125885C7.05431 0.0186005 6.78277 0.18714 6.59551 0.505492L4.79775 4.21336L0.752809 4.83133C0.397004 4.88751 0.162921 5.08414 0.0505618 5.42122C-0.0617978 5.77703 0.0131086 6.08602 0.275281 6.34819L3.19663 9.24145L2.49438 13.3426C2.45693 13.6984 2.57865 13.9886 2.85955 14.2134C3.15918 14.4193 3.47753 14.4381 3.81461 14.2695L7.41011 12.3594L11.0337 14.2695C11.3521 14.4381 11.661 14.4193 11.9607 14.2134C12.2603 13.9886 12.382 13.6984 12.3258 13.3426L11.6517 9.24145L14.573 6.34819C14.8165 6.08602 14.8914 5.77703 14.7978 5.42122C14.6667 5.08414 14.4232 4.88751 14.0674 4.83133L10.0225 4.21336L8.22472 0.505492Z" fill="#F82BA9"/>
</svg>
